<?xml version="1.0" encoding="UTF-8" standalone="no"?>
<svg
   xmlns:dc="http://purl.org/dc/elements/1.1/"
   xmlns:cc="http://creativecommons.org/ns#"
   xmlns:rdf="http://www.w3.org/1999/02/22-rdf-syntax-ns#"
   xmlns:svg="http://www.w3.org/2000/svg"
   xmlns="http://www.w3.org/2000/svg"
   viewBox="0 0 290.81226 57.70013"
   height="57.70013"
   width="290.81226"
   xml:space="preserve"
   id="svg271"
   version="1.1"><metadata
     id="metadata277"><rdf:RDF><cc:Work
         rdf:about=""><dc:format>image/svg+xml</dc:format><dc:type
           rdf:resource="http://purl.org/dc/dcmitype/StillImage" /><dc:title></dc:title></cc:Work></rdf:RDF></metadata><defs
     id="defs275"><clipPath
       id="clipPath293"
       clipPathUnits="userSpaceOnUse"><path
         id="path291"
         d="M 0,792 H 612 V 0 H 0 Z" /></clipPath></defs><g
     transform="matrix(1.3333333,0,0,-1.3333333,-144.412,907.41051)"
     id="g279"><g
       id="g287"><g
         clip-path="url(#clipPath293)"
         id="g289"><g
           transform="translate(124.521,652.9308)"
           id="g295"><path
             id="path297"
             style="fill:#0c101d;fill-opacity:1;fill-rule:nonzero;stroke:none"
             d="m 0,0 -8.743,-13.451 c -0.513,-0.843 -1.145,-1.419 -1.895,-1.73 -0.75,-0.311 -1.547,-0.467 -2.389,-0.467 -0.952,0 -1.721,0.33 -2.306,0.988 -0.586,0.66 -0.879,1.556 -0.879,2.691 v 39.432 h 7.469 V -1.479 l 4.768,7.524 z" /></g><g
           transform="translate(121.7533,660.8243)"
           id="g299"><path
             id="path301"
             style="fill:#a63e8f;fill-opacity:1;fill-rule:nonzero;stroke:none"
             d="m 0,0 12.367,19.569 h 8.897 L 8.468,0.677 25.932,-23.267 H 15.827 Z" /></g><g
           transform="translate(182.2322,637.4203)"
           id="g303"><path
             id="path305"
             style="fill:#0c101d;fill-opacity:1;fill-rule:nonzero;stroke:none"
             d="m 0,0 h -10.435 l -11.368,12.027 c -0.659,0.695 -1.162,1.354 -1.509,1.977 -0.349,0.622 -0.522,1.244 -0.522,1.867 0,2.343 1.482,3.625 4.448,3.844 3.99,0.293 6.947,1.09 8.869,2.389 1.922,1.3 2.883,3.268 2.883,5.904 0,2.452 -0.741,4.292 -2.224,5.519 -1.482,1.226 -3.597,1.84 -6.343,1.84 h -8.238 V 0 h -7.468 v 42.836 h 15.871 c 2.233,0 4.338,-0.321 6.315,-0.961 1.978,-0.642 3.689,-1.575 5.135,-2.801 1.446,-1.228 2.59,-2.756 3.432,-4.586 0.842,-1.831 1.264,-3.936 1.264,-6.315 0,-1.428 -0.22,-2.893 -0.659,-4.394 -0.44,-1.501 -1.172,-2.91 -2.197,-4.228 -1.025,-1.318 -2.38,-2.481 -4.064,-3.488 -1.684,-1.007 -3.789,-1.711 -6.316,-2.114 z" /></g><g
           transform="translate(235.5592,672.7872)"
           id="g307"><path
             id="path309"
             style="fill:#0c101d;fill-opacity:1;fill-rule:nonzero;stroke:none"
             d="M 0,0 V -35.367 H -7.469 V 0 H -18.398 V 7.469 H 10.928 V 0 Z" /></g><g
           transform="translate(269.8765,672.7872)"
           id="g311"><path
             id="path313"
             style="fill:#0c101d;fill-opacity:1;fill-rule:nonzero;stroke:none"
             d="m 0,0 c -2.051,0 -3.937,-0.349 -5.656,-1.043 -1.722,-0.697 -3.214,-1.667 -4.477,-2.911 -1.263,-1.246 -2.251,-2.728 -2.965,-4.448 -0.714,-1.722 -1.071,-3.625 -1.071,-5.712 0,-2.014 0.347,-3.863 1.044,-5.546 0.694,-1.685 1.665,-3.141 2.91,-4.367 1.244,-1.227 2.736,-2.178 4.476,-2.856 1.738,-0.677 3.652,-1.016 5.739,-1.016 h 1.263 c 2.123,0 4.054,0.348 5.794,1.044 1.738,0.695 3.23,1.656 4.475,2.883 1.244,1.226 2.205,2.682 2.884,4.367 0.676,1.683 1.016,3.514 1.016,5.491 0,2.05 -0.349,3.935 -1.044,5.657 -0.696,1.72 -1.675,3.212 -2.938,4.475 C 10.187,-2.719 8.685,-1.74 6.947,-1.043 5.207,-0.349 3.313,0 1.263,0 Z m 0,-35.367 c -3.149,0 -6.051,0.558 -8.705,1.675 -2.655,1.116 -4.934,2.664 -6.837,4.64 -1.904,1.978 -3.387,4.293 -4.448,6.948 -1.063,2.654 -1.593,5.518 -1.593,8.594 0,3.075 0.522,5.894 1.565,8.457 1.043,2.562 2.507,4.778 4.394,6.646 1.885,1.866 4.154,3.312 6.809,4.338 2.654,1.025 5.593,1.538 8.815,1.538 h 1.263 c 3.258,0 6.214,-0.522 8.869,-1.566 2.654,-1.043 4.923,-2.499 6.81,-4.365 1.885,-1.868 3.34,-4.084 4.366,-6.646 1.024,-2.563 1.537,-5.363 1.537,-8.402 0,-3.076 -0.531,-5.94 -1.592,-8.594 -1.063,-2.655 -2.554,-4.97 -4.476,-6.948 -1.922,-1.976 -4.201,-3.524 -6.837,-4.64 -2.637,-1.117 -5.529,-1.675 -8.677,-1.675 z" /></g><g
           transform="translate(296.7632,637.5577)"
           id="g315"><path
             id="path317"
             style="fill:#0c101d;fill-opacity:1;fill-rule:nonzero;stroke:none"
             d="m 0,0 v 7.468 h 14.993 c 2.306,0 4.209,0.55 5.711,1.648 1.501,1.099 2.252,2.527 2.252,4.283 0,0.88 -0.202,1.684 -0.605,2.417 -0.402,0.732 -0.952,1.364 -1.647,1.895 -0.696,0.53 -1.537,0.942 -2.526,1.235 -0.989,0.293 -2.051,0.44 -3.185,0.44 h -3.405 c -1.758,0 -3.387,0.283 -4.888,0.851 -1.502,0.568 -2.801,1.373 -3.899,2.416 -1.098,1.044 -1.959,2.27 -2.581,3.68 -0.623,1.409 -0.934,2.974 -0.934,4.695 0,1.684 0.32,3.241 0.961,4.669 0.64,1.427 1.547,2.672 2.719,3.734 1.171,1.061 2.581,1.894 4.228,2.499 1.648,0.603 3.46,0.906 5.437,0.906 H 26.855 V 35.367 H 12.246 c -1.574,0 -2.819,-0.431 -3.734,-1.291 -0.915,-0.86 -1.373,-1.894 -1.373,-3.103 0,-1.318 0.467,-2.416 1.401,-3.295 0.933,-0.878 2.169,-1.318 3.706,-1.318 h 4.229 c 1.904,0 3.661,-0.321 5.273,-0.961 1.61,-0.641 3.001,-1.547 4.173,-2.718 1.172,-1.173 2.087,-2.564 2.746,-4.174 0.659,-1.611 0.988,-3.369 0.988,-5.272 0,-1.941 -0.348,-3.716 -1.043,-5.327 C 27.916,6.296 26.918,4.905 25.62,3.734 24.319,2.562 22.772,1.648 20.978,0.988 19.185,0.33 17.189,0 14.993,0 Z" /></g><g
           transform="translate(196.9237,648.6229)"
           id="g319"><path
             id="path321"
             style="fill:#0c101d;fill-opacity:1;fill-rule:nonzero;stroke:none"
             d="M 0,0 7.179,19.949 12.188,0 Z M 15.136,-11.23 H 22.55 L 12.196,28.201 c -0.298,1.134 -0.819,2.041 -1.565,2.718 -0.745,0.677 -1.594,1.016 -2.546,1.016 -0.842,0 -1.593,-0.174 -2.251,-0.521 -0.66,-0.349 -1.14,-0.926 -1.441,-1.73 L -12.103,-11.23 h 7.934 l 1.396,3.761 h 16.922 z" /></g><g
           transform="translate(121.7533,556.2551)"
           id="g529" /></g></g></g></svg>